<mxfile host="Electron" agent="Mozilla/5.0 (Macintosh; Intel Mac OS X 10_15_7) AppleWebKit/537.36 (KHTML, like Gecko) draw.io/24.7.17 Chrome/128.0.6613.36 Electron/32.0.1 Safari/537.36" version="24.7.17">
  <diagram id="rRDhQRThPtQKGGIecC3R" name="Page-1">
    <mxGraphModel dx="2236" dy="2161" grid="1" gridSize="10" guides="1" tooltips="1" connect="1" arrows="1" fold="1" page="1" pageScale="1" pageWidth="850" pageHeight="1100" math="0" shadow="0">
      <root>
        <mxCell id="0" />
        <mxCell id="1" parent="0" />
        <mxCell id="jmTY7Rd2mBAVTG5OkfLD-4" value="" style="rounded=1;arcSize=10;dashed=0;fillColor=none;gradientColor=none;strokeWidth=2;" parent="1" vertex="1">
          <mxGeometry x="40" y="120" width="720" height="760" as="geometry" />
        </mxCell>
        <mxCell id="jmTY7Rd2mBAVTG5OkfLD-28" value="" style="rounded=1;arcSize=10;dashed=1;fillColor=none;gradientColor=none;dashPattern=8 3 1 3;strokeWidth=2;" parent="1" vertex="1">
          <mxGeometry x="180" y="545" width="480" height="125" as="geometry" />
        </mxCell>
        <mxCell id="jmTY7Rd2mBAVTG5OkfLD-27" value="" style="rounded=1;arcSize=10;dashed=1;fillColor=none;gradientColor=none;dashPattern=8 3 1 3;strokeWidth=2;" parent="1" vertex="1">
          <mxGeometry x="204" y="305" width="436" height="70" as="geometry" />
        </mxCell>
        <mxCell id="jmTY7Rd2mBAVTG5OkfLD-6" value="" style="rounded=1;arcSize=10;dashed=1;strokeColor=#F59D56;fillColor=none;gradientColor=none;dashPattern=8 4;strokeWidth=2;" parent="1" vertex="1">
          <mxGeometry x="120" y="160" width="240" height="680" as="geometry" />
        </mxCell>
        <mxCell id="jmTY7Rd2mBAVTG5OkfLD-8" value="" style="rounded=1;arcSize=10;dashed=0;fillColor=none;gradientColor=none;strokeWidth=2;" parent="1" vertex="1">
          <mxGeometry x="160" y="200" width="160" height="200" as="geometry" />
        </mxCell>
        <mxCell id="jmTY7Rd2mBAVTG5OkfLD-1" value="" style="outlineConnect=0;dashed=0;verticalLabelPosition=bottom;verticalAlign=top;align=center;html=1;shape=mxgraph.aws3.internet_gateway;fillColor=#F58536;gradientColor=none;" parent="1" vertex="1">
          <mxGeometry x="642" y="75" width="40" height="40" as="geometry" />
        </mxCell>
        <mxCell id="jmTY7Rd2mBAVTG5OkfLD-2" value="" style="outlineConnect=0;dashed=0;verticalLabelPosition=bottom;verticalAlign=top;align=center;html=1;shape=mxgraph.aws3.vpc_nat_gateway;fillColor=#F58534;gradientColor=none;" parent="1" vertex="1">
          <mxGeometry x="200" y="237.5" width="40" height="40" as="geometry" />
        </mxCell>
        <mxCell id="jmTY7Rd2mBAVTG5OkfLD-5" value="" style="dashed=0;html=1;shape=mxgraph.aws3.virtual_private_cloud;fillColor=#F58536;gradientColor=none;dashed=0;" parent="1" vertex="1">
          <mxGeometry x="90" y="73" width="52" height="36" as="geometry" />
        </mxCell>
        <mxCell id="jmTY7Rd2mBAVTG5OkfLD-7" value="" style="rounded=1;arcSize=10;dashed=1;strokeColor=#F59D56;fillColor=none;gradientColor=none;dashPattern=8 4;strokeWidth=2;" parent="1" vertex="1">
          <mxGeometry x="480" y="160" width="240" height="680" as="geometry" />
        </mxCell>
        <mxCell id="jmTY7Rd2mBAVTG5OkfLD-9" value="" style="dashed=0;html=1;shape=mxgraph.aws3.permissions;fillColor=#D9A741;gradientColor=none;dashed=0;" parent="1" vertex="1">
          <mxGeometry x="176" y="180" width="30" height="30" as="geometry" />
        </mxCell>
        <mxCell id="jmTY7Rd2mBAVTG5OkfLD-10" value="" style="rounded=1;arcSize=10;dashed=0;fillColor=none;gradientColor=none;strokeWidth=2;" parent="1" vertex="1">
          <mxGeometry x="520" y="200" width="160" height="200" as="geometry" />
        </mxCell>
        <mxCell id="jmTY7Rd2mBAVTG5OkfLD-11" value="" style="dashed=0;html=1;shape=mxgraph.aws3.permissions;fillColor=#D9A741;gradientColor=none;dashed=0;" parent="1" vertex="1">
          <mxGeometry x="540" y="180" width="30" height="30" as="geometry" />
        </mxCell>
        <mxCell id="jmTY7Rd2mBAVTG5OkfLD-12" value="" style="rounded=1;arcSize=10;dashed=0;fillColor=none;gradientColor=none;strokeWidth=2;" parent="1" vertex="1">
          <mxGeometry x="160" y="480" width="160" height="320" as="geometry" />
        </mxCell>
        <mxCell id="jmTY7Rd2mBAVTG5OkfLD-13" value="" style="dashed=0;html=1;shape=mxgraph.aws3.permissions;fillColor=#D9A741;gradientColor=none;dashed=0;" parent="1" vertex="1">
          <mxGeometry x="176" y="460" width="30" height="30" as="geometry" />
        </mxCell>
        <mxCell id="jmTY7Rd2mBAVTG5OkfLD-14" value="" style="rounded=1;arcSize=10;dashed=0;fillColor=none;gradientColor=none;strokeWidth=2;" parent="1" vertex="1">
          <mxGeometry x="518" y="480" width="164" height="320" as="geometry" />
        </mxCell>
        <mxCell id="jmTY7Rd2mBAVTG5OkfLD-15" value="" style="dashed=0;html=1;shape=mxgraph.aws3.permissions;fillColor=#D9A741;gradientColor=none;dashed=0;" parent="1" vertex="1">
          <mxGeometry x="538" y="460" width="30" height="30" as="geometry" />
        </mxCell>
        <mxCell id="jmTY7Rd2mBAVTG5OkfLD-16" value="" style="outlineConnect=0;dashed=0;verticalLabelPosition=bottom;verticalAlign=top;align=center;html=1;shape=mxgraph.aws3.vpc_nat_gateway;fillColor=#F58534;gradientColor=none;" parent="1" vertex="1">
          <mxGeometry x="600" y="240" width="40" height="40" as="geometry" />
        </mxCell>
        <mxCell id="jmTY7Rd2mBAVTG5OkfLD-22" value="" style="outlineConnect=0;dashed=0;verticalLabelPosition=bottom;verticalAlign=top;align=center;html=1;shape=mxgraph.aws3.rds;fillColor=#2E73B8;gradientColor=none;" parent="1" vertex="1">
          <mxGeometry x="224" y="709" width="72" height="51" as="geometry" />
        </mxCell>
        <mxCell id="jmTY7Rd2mBAVTG5OkfLD-23" value="" style="outlineConnect=0;dashed=1;verticalLabelPosition=bottom;verticalAlign=top;align=center;html=1;shape=mxgraph.aws3.rds;fillColor=#B3B3B3;strokeColor=#666666;fontColor=#333333;" parent="1" vertex="1">
          <mxGeometry x="548" y="709" width="72" height="51" as="geometry" />
        </mxCell>
        <mxCell id="jmTY7Rd2mBAVTG5OkfLD-24" value="" style="outlineConnect=0;dashed=0;verticalLabelPosition=bottom;verticalAlign=top;align=center;html=1;shape=mxgraph.aws3.application_load_balancer;fillColor=#F58534;gradientColor=none;" parent="1" vertex="1">
          <mxGeometry x="402" y="160" width="40" height="40" as="geometry" />
        </mxCell>
        <mxCell id="jmTY7Rd2mBAVTG5OkfLD-25" value="" style="outlineConnect=0;dashed=0;verticalLabelPosition=bottom;verticalAlign=top;align=center;html=1;shape=mxgraph.aws3.application_load_balancer;fillColor=#F58534;gradientColor=none;" parent="1" vertex="1">
          <mxGeometry x="400" y="400" width="40" height="40" as="geometry" />
        </mxCell>
        <mxCell id="jmTY7Rd2mBAVTG5OkfLD-29" value="" style="endArrow=classic;html=1;exitX=0.145;exitY=0.855;exitDx=0;exitDy=0;exitPerimeter=0;entryX=0.5;entryY=0;entryDx=0;entryDy=0;entryPerimeter=0;strokeWidth=2;fillColor=#dae8fc;strokeColor=#6c8ebf;" parent="1" source="jmTY7Rd2mBAVTG5OkfLD-24" edge="1">
          <mxGeometry width="50" height="50" relative="1" as="geometry">
            <mxPoint x="400" y="260" as="sourcePoint" />
            <mxPoint x="260" y="320" as="targetPoint" />
          </mxGeometry>
        </mxCell>
        <mxCell id="jmTY7Rd2mBAVTG5OkfLD-30" value="" style="endArrow=classic;html=1;exitX=0.855;exitY=0.855;exitDx=0;exitDy=0;exitPerimeter=0;entryX=0.5;entryY=0;entryDx=0;entryDy=0;entryPerimeter=0;strokeWidth=2;fillColor=#dae8fc;strokeColor=#6c8ebf;" parent="1" source="jmTY7Rd2mBAVTG5OkfLD-24" edge="1">
          <mxGeometry width="50" height="50" relative="1" as="geometry">
            <mxPoint x="390" y="290" as="sourcePoint" />
            <mxPoint x="580" y="320" as="targetPoint" />
          </mxGeometry>
        </mxCell>
        <mxCell id="jmTY7Rd2mBAVTG5OkfLD-31" value="" style="endArrow=classic;html=1;exitX=0.145;exitY=0.855;exitDx=0;exitDy=0;exitPerimeter=0;entryX=0.5;entryY=0;entryDx=0;entryDy=0;strokeWidth=2;fillColor=#dae8fc;strokeColor=#6c8ebf;entryPerimeter=0;" parent="1" source="jmTY7Rd2mBAVTG5OkfLD-25" target="YX4tFnGgiEKLoziQhKjs-26" edge="1">
          <mxGeometry width="50" height="50" relative="1" as="geometry">
            <mxPoint x="90" y="870" as="sourcePoint" />
            <mxPoint x="260" y="560" as="targetPoint" />
          </mxGeometry>
        </mxCell>
        <mxCell id="jmTY7Rd2mBAVTG5OkfLD-32" value="" style="endArrow=classic;html=1;exitX=0.855;exitY=0.855;exitDx=0;exitDy=0;exitPerimeter=0;entryX=0.5;entryY=0;entryDx=0;entryDy=0;entryPerimeter=0;strokeWidth=2;fillColor=#dae8fc;strokeColor=#6c8ebf;" parent="1" source="jmTY7Rd2mBAVTG5OkfLD-25" target="YX4tFnGgiEKLoziQhKjs-33" edge="1">
          <mxGeometry width="50" height="50" relative="1" as="geometry">
            <mxPoint x="390" y="520" as="sourcePoint" />
            <mxPoint x="580" y="560" as="targetPoint" />
          </mxGeometry>
        </mxCell>
        <mxCell id="jmTY7Rd2mBAVTG5OkfLD-33" value="" style="endArrow=classic;html=1;strokeWidth=2;fillColor=#dae8fc;strokeColor=#6c8ebf;" parent="1" target="jmTY7Rd2mBAVTG5OkfLD-24" edge="1">
          <mxGeometry width="50" height="50" relative="1" as="geometry">
            <mxPoint x="422" y="70" as="sourcePoint" />
            <mxPoint x="140" y="820" as="targetPoint" />
          </mxGeometry>
        </mxCell>
        <mxCell id="jmTY7Rd2mBAVTG5OkfLD-34" value="" style="ellipse;shape=cloud;whiteSpace=wrap;html=1;" parent="1" vertex="1">
          <mxGeometry x="360" y="-7" width="120" height="80" as="geometry" />
        </mxCell>
        <mxCell id="jmTY7Rd2mBAVTG5OkfLD-35" value="" style="endArrow=classic;html=1;strokeWidth=2;exitX=0.5;exitY=1;exitDx=0;exitDy=0;exitPerimeter=0;entryX=0;entryY=0.5;entryDx=0;entryDy=0;entryPerimeter=0;fillColor=#dae8fc;strokeColor=#6c8ebf;" parent="1" target="jmTY7Rd2mBAVTG5OkfLD-25" edge="1">
          <mxGeometry width="50" height="50" relative="1" as="geometry">
            <mxPoint x="260" y="360" as="sourcePoint" />
            <mxPoint x="260" y="410" as="targetPoint" />
          </mxGeometry>
        </mxCell>
        <mxCell id="jmTY7Rd2mBAVTG5OkfLD-36" value="" style="endArrow=classic;html=1;strokeWidth=2;exitX=0.5;exitY=1;exitDx=0;exitDy=0;exitPerimeter=0;entryX=1;entryY=0.5;entryDx=0;entryDy=0;entryPerimeter=0;fillColor=#dae8fc;strokeColor=#6c8ebf;" parent="1" target="jmTY7Rd2mBAVTG5OkfLD-25" edge="1">
          <mxGeometry width="50" height="50" relative="1" as="geometry">
            <mxPoint x="580" y="360" as="sourcePoint" />
            <mxPoint x="570" y="410" as="targetPoint" />
          </mxGeometry>
        </mxCell>
        <mxCell id="jmTY7Rd2mBAVTG5OkfLD-39" value="" style="endArrow=classic;startArrow=classic;html=1;strokeWidth=2;fillColor=#e1d5e7;strokeColor=#9673a6;entryX=0;entryY=0.5;entryDx=0;entryDy=0;entryPerimeter=0;exitX=0;exitY=0.5;exitDx=0;exitDy=0;exitPerimeter=0;" parent="1" source="jmTY7Rd2mBAVTG5OkfLD-22" target="YX4tFnGgiEKLoziQhKjs-26" edge="1">
          <mxGeometry width="50" height="50" relative="1" as="geometry">
            <mxPoint x="190" y="680" as="sourcePoint" />
            <mxPoint x="260" y="650" as="targetPoint" />
            <Array as="points">
              <mxPoint x="170" y="735" />
              <mxPoint x="170" y="592" />
            </Array>
          </mxGeometry>
        </mxCell>
        <mxCell id="jmTY7Rd2mBAVTG5OkfLD-40" value="" style="endArrow=classic;startArrow=classic;html=1;strokeWidth=2;fillColor=#e1d5e7;strokeColor=#9673a6;exitX=1;exitY=0.22;exitDx=0;exitDy=0;exitPerimeter=0;entryX=1;entryY=0.5;entryDx=0;entryDy=0;entryPerimeter=0;" parent="1" source="jmTY7Rd2mBAVTG5OkfLD-22" target="YX4tFnGgiEKLoziQhKjs-33" edge="1">
          <mxGeometry width="50" height="50" relative="1" as="geometry">
            <mxPoint x="90" y="910" as="sourcePoint" />
            <mxPoint x="580" y="640" as="targetPoint" />
            <Array as="points">
              <mxPoint x="350" y="690" />
              <mxPoint x="670" y="690" />
              <mxPoint x="670" y="595" />
            </Array>
          </mxGeometry>
        </mxCell>
        <mxCell id="jmTY7Rd2mBAVTG5OkfLD-41" value="" style="endArrow=classic;startArrow=classic;html=1;strokeWidth=2;exitX=1;exitY=0.5;exitDx=0;exitDy=0;exitPerimeter=0;dashed=1;fillColor=#f5f5f5;strokeColor=#666666;" parent="1" source="jmTY7Rd2mBAVTG5OkfLD-22" target="jmTY7Rd2mBAVTG5OkfLD-23" edge="1">
          <mxGeometry width="50" height="50" relative="1" as="geometry">
            <mxPoint x="380" y="720" as="sourcePoint" />
            <mxPoint x="430" y="670" as="targetPoint" />
          </mxGeometry>
        </mxCell>
        <mxCell id="jmTY7Rd2mBAVTG5OkfLD-42" value="public_subnet_1" style="text;html=1;strokeColor=none;fillColor=none;align=center;verticalAlign=middle;whiteSpace=wrap;rounded=0;" parent="1" vertex="1">
          <mxGeometry x="238" y="176" width="40" height="20" as="geometry" />
        </mxCell>
        <mxCell id="jmTY7Rd2mBAVTG5OkfLD-43" value="public_subnet_2" style="text;html=1;strokeColor=none;fillColor=none;align=center;verticalAlign=middle;whiteSpace=wrap;rounded=0;" parent="1" vertex="1">
          <mxGeometry x="602" y="176" width="40" height="20" as="geometry" />
        </mxCell>
        <mxCell id="jmTY7Rd2mBAVTG5OkfLD-44" value="private_subnet_1" style="text;html=1;strokeColor=none;fillColor=none;align=center;verticalAlign=middle;whiteSpace=wrap;rounded=0;" parent="1" vertex="1">
          <mxGeometry x="238" y="455" width="40" height="20" as="geometry" />
        </mxCell>
        <mxCell id="jmTY7Rd2mBAVTG5OkfLD-45" value="private_subnet_2" style="text;html=1;strokeColor=none;fillColor=none;align=center;verticalAlign=middle;whiteSpace=wrap;rounded=0;" parent="1" vertex="1">
          <mxGeometry x="603" y="455" width="40" height="20" as="geometry" />
        </mxCell>
        <mxCell id="YX4tFnGgiEKLoziQhKjs-1" value="igw" style="text;html=1;strokeColor=none;fillColor=none;align=center;verticalAlign=middle;whiteSpace=wrap;rounded=0;" parent="1" vertex="1">
          <mxGeometry x="680" y="73" width="40" height="20" as="geometry" />
        </mxCell>
        <mxCell id="YX4tFnGgiEKLoziQhKjs-2" value="nat_gw_1" style="text;html=1;strokeColor=none;fillColor=none;align=center;verticalAlign=middle;whiteSpace=wrap;rounded=0;" parent="1" vertex="1">
          <mxGeometry x="254" y="247.5" width="40" height="20" as="geometry" />
        </mxCell>
        <mxCell id="YX4tFnGgiEKLoziQhKjs-3" value="nat_gw_2" style="text;html=1;strokeColor=none;fillColor=none;align=center;verticalAlign=middle;whiteSpace=wrap;rounded=0;" parent="1" vertex="1">
          <mxGeometry x="544" y="250" width="40" height="20" as="geometry" />
        </mxCell>
        <mxCell id="YX4tFnGgiEKLoziQhKjs-4" value="frontend&lt;span style=&quot;background-color: initial;&quot;&gt;_asg&lt;/span&gt;" style="text;html=1;strokeColor=none;fillColor=none;align=center;verticalAlign=middle;whiteSpace=wrap;rounded=0;" parent="1" vertex="1">
          <mxGeometry x="403" y="307" width="40" height="20" as="geometry" />
        </mxCell>
        <mxCell id="YX4tFnGgiEKLoziQhKjs-6" value="application_asg" style="text;html=1;strokeColor=none;fillColor=none;align=center;verticalAlign=middle;whiteSpace=wrap;rounded=0;" parent="1" vertex="1">
          <mxGeometry x="400" y="549" width="40" height="20" as="geometry" />
        </mxCell>
        <mxCell id="YX4tFnGgiEKLoziQhKjs-7" value="frontend&lt;span style=&quot;background-color: initial;&quot;&gt;_alb&lt;/span&gt;" style="text;html=1;strokeColor=none;fillColor=none;align=center;verticalAlign=middle;whiteSpace=wrap;rounded=0;" parent="1" vertex="1">
          <mxGeometry x="401" y="222" width="40" height="20" as="geometry" />
        </mxCell>
        <mxCell id="YX4tFnGgiEKLoziQhKjs-8" value="application_alb" style="text;html=1;" parent="1" vertex="1">
          <mxGeometry x="378" y="460" width="110" height="30" as="geometry" />
        </mxCell>
        <mxCell id="YX4tFnGgiEKLoziQhKjs-9" value="&lt;span style=&quot;color: rgb(36 , 41 , 46) ; font-family: , &amp;#34;consolas&amp;#34; , &amp;#34;liberation mono&amp;#34; , &amp;#34;menlo&amp;#34; , monospace ; white-space: pre ; background-color: rgb(255 , 255 , 255)&quot;&gt;availability_zone_a&lt;/span&gt;" style="text;html=1;strokeColor=none;fillColor=none;align=center;verticalAlign=middle;whiteSpace=wrap;rounded=0;" parent="1" vertex="1">
          <mxGeometry x="220" y="136" width="40" height="20" as="geometry" />
        </mxCell>
        <mxCell id="YX4tFnGgiEKLoziQhKjs-15" value="&lt;span style=&quot;color: rgb(36 , 41 , 46) ; font-family: , &amp;#34;consolas&amp;#34; , &amp;#34;liberation mono&amp;#34; , &amp;#34;menlo&amp;#34; , monospace ; white-space: pre ; background-color: rgb(255 , 255 , 255)&quot;&gt;availability_zone_b&lt;/span&gt;" style="text;html=1;strokeColor=none;fillColor=none;align=center;verticalAlign=middle;whiteSpace=wrap;rounded=0;" parent="1" vertex="1">
          <mxGeometry x="610" y="136" width="40" height="20" as="geometry" />
        </mxCell>
        <mxCell id="YX4tFnGgiEKLoziQhKjs-16" value="database_instance" style="text;html=1;strokeColor=none;fillColor=none;align=center;verticalAlign=middle;whiteSpace=wrap;rounded=0;" parent="1" vertex="1">
          <mxGeometry x="240" y="761" width="40" height="20" as="geometry" />
        </mxCell>
        <mxCell id="YX4tFnGgiEKLoziQhKjs-24" value="" style="rounded=1;arcSize=10;dashed=0;fillColor=none;gradientColor=none;strokeWidth=2;" parent="1" vertex="1">
          <mxGeometry x="194" y="564" width="110" height="80" as="geometry" />
        </mxCell>
        <mxCell id="YX4tFnGgiEKLoziQhKjs-25" value="EC2" style="dashed=0;html=1;shape=mxgraph.aws3.instance;fillColor=#F58536;gradientColor=none;dashed=0;fontSize=9;" parent="1" vertex="1">
          <mxGeometry x="207" y="550" width="20" height="20" as="geometry" />
        </mxCell>
        <mxCell id="YX4tFnGgiEKLoziQhKjs-26" value="" style="outlineConnect=0;dashed=0;verticalLabelPosition=bottom;verticalAlign=top;align=center;html=1;shape=mxgraph.aws3.ec2_compute_container;fillColor=#F58534;gradientColor=none;" parent="1" vertex="1">
          <mxGeometry x="222" y="582" width="54" height="20" as="geometry" />
        </mxCell>
        <mxCell id="YX4tFnGgiEKLoziQhKjs-27" value="the app in&lt;br&gt;docker container" style="text;html=1;strokeColor=none;fillColor=none;align=center;verticalAlign=middle;whiteSpace=wrap;rounded=0;" parent="1" vertex="1">
          <mxGeometry x="191" y="609" width="113" height="20" as="geometry" />
        </mxCell>
        <mxCell id="YX4tFnGgiEKLoziQhKjs-31" value="" style="rounded=1;arcSize=10;dashed=0;fillColor=none;gradientColor=none;strokeWidth=2;" parent="1" vertex="1">
          <mxGeometry x="533" y="566.5" width="110" height="80" as="geometry" />
        </mxCell>
        <mxCell id="YX4tFnGgiEKLoziQhKjs-33" value="" style="outlineConnect=0;dashed=0;verticalLabelPosition=bottom;verticalAlign=top;align=center;html=1;shape=mxgraph.aws3.ec2_compute_container;fillColor=#F58534;gradientColor=none;" parent="1" vertex="1">
          <mxGeometry x="561" y="584.5" width="54" height="20" as="geometry" />
        </mxCell>
        <mxCell id="YX4tFnGgiEKLoziQhKjs-34" value="the app in&lt;br&gt;docker container" style="text;html=1;strokeColor=none;fillColor=none;align=center;verticalAlign=middle;whiteSpace=wrap;rounded=0;" parent="1" vertex="1">
          <mxGeometry x="530" y="611.5" width="113" height="20" as="geometry" />
        </mxCell>
        <mxCell id="YX4tFnGgiEKLoziQhKjs-35" value="Traditional 3-tier architecture in AWS" style="text;html=1;strokeColor=none;fillColor=none;align=center;verticalAlign=middle;whiteSpace=wrap;rounded=0;fontStyle=1;fontSize=21;" parent="1" vertex="1">
          <mxGeometry x="-142.5" y="-30" width="390" height="20" as="geometry" />
        </mxCell>
        <mxCell id="YX4tFnGgiEKLoziQhKjs-37" value="" style="endArrow=none;html=1;fontSize=21;" parent="1" edge="1">
          <mxGeometry width="50" height="50" relative="1" as="geometry">
            <mxPoint x="-140" as="sourcePoint" />
            <mxPoint x="250" as="targetPoint" />
          </mxGeometry>
        </mxCell>
        <mxCell id="YX4tFnGgiEKLoziQhKjs-40" value="EC2" style="outlineConnect=0;dashed=0;verticalLabelPosition=middle;verticalAlign=middle;align=center;html=1;shape=mxgraph.aws3.instance;fillColor=#F58534;gradientColor=none;labelPosition=center;" parent="1" vertex="1">
          <mxGeometry x="561" y="320" width="40" height="40" as="geometry" />
        </mxCell>
        <mxCell id="YX4tFnGgiEKLoziQhKjs-41" value="EC2" style="outlineConnect=0;dashed=0;verticalLabelPosition=middle;verticalAlign=middle;align=center;html=1;shape=mxgraph.aws3.instance;fillColor=#F58534;gradientColor=none;labelPosition=center;" parent="1" vertex="1">
          <mxGeometry x="240" y="320" width="40" height="40" as="geometry" />
        </mxCell>
        <mxCell id="YX4tFnGgiEKLoziQhKjs-42" value="EC2" style="dashed=0;html=1;shape=mxgraph.aws3.instance;fillColor=#F58536;gradientColor=none;dashed=0;fontSize=9;" parent="1" vertex="1">
          <mxGeometry x="612" y="552" width="20" height="20" as="geometry" />
        </mxCell>
      </root>
    </mxGraphModel>
  </diagram>
</mxfile>
